<svg xmlns="http://www.w3.org/2000/svg"  viewBox="0 0 64 64" width="128px" height="128px"><path fill="#f6d397" d="M41.058,2.708c-9.389,0-17,7.611-17,17s7.611,17,17,17s17-7.611,17-17S50.446,2.708,41.058,2.708z"/><path fill="#f9e3ae" d="M41.058,7.708c-6.627,0-12,5.373-12,12s5.373,12,12,12s12-5.373,12-12S47.685,7.708,41.058,7.708z"/><path fill="#ffefca" d="M46.983,9.283c-0.222-0.129-0.452-0.245-0.682-0.359L30.272,24.931 c0.115,0.232,0.232,0.463,0.361,0.687c0.435,0.779,0.96,1.502,1.558,2.164L49.14,10.841C48.481,10.243,47.76,9.716,46.983,9.283z M42.663,7.82c-0.532-0.075-1.068-0.113-1.605-0.112c-0.236,0-0.466,0.022-0.699,0.035l-9.224,9.195l-2.04,2.04 c-0.015,0.243-0.037,0.484-0.037,0.73c0.006,0.987,0.137,1.966,0.374,2.921L43.989,8.073C43.552,7.964,43.11,7.879,42.663,7.82z M52.506,16.105c-0.111-0.354-0.238-0.7-0.38-1.039c-0.006-0.014-0.011-0.027-0.016-0.041c-0.288-0.678-0.639-1.321-1.041-1.928 c-0.063-0.094-0.129-0.186-0.194-0.278c-0.076-0.107-0.157-0.21-0.236-0.315l-0.903,0.9l-15.875,15.89 c2.006,1.509,4.493,2.414,7.197,2.414l12-12c0-1.231-0.187-2.418-0.531-3.536C52.52,16.15,52.513,16.127,52.506,16.105z"/><path fill="#faefde" d="M57.337,41.761c-0.309,0-0.617,0.04-0.916,0.117l-14.39,3.76l-0.033,0.031 c-0.169-2.048-1.862-3.666-3.953-3.672c-0.1,0-0.2,0.003-0.3,0.01l-2.188,0.16c-1.031,0.075-2.064-0.118-2.998-0.56l-9.404-4.44 c-2.027-0.954-4.281-1.322-6.505-1.06L4.826,37.498c-1.013,0.117-1.776,0.979-1.769,2v12.65c0.001,1.105,0.897,1.999,2.001,1.998 c0.161,0,0.322-0.02,0.478-0.058l6.516-1.64c1.908-0.479,3.925-0.237,5.666,0.68l12.621,6.63c2.319,1.213,5.085,1.213,7.405,0 l21.275-11.05c1.226-0.629,1.997-1.891,1.999-3.27C61.016,43.406,59.368,41.759,57.337,41.761z"/><path fill="#efd8be" d="M40.548,54.348l-2.78,1.44c-2.321,1.213-5.089,1.213-7.41,0l-12.59-6.66 c-1.753-0.927-3.788-1.169-5.71-0.68l-9,2.26v1.44c0.001,1.105,0.897,1.999,2.002,1.998c0.161,0,0.322-0.02,0.478-0.058l6.52-1.64 c1.909-0.479,3.928-0.236,5.67,0.68l12.63,6.63c2.321,1.213,5.089,1.213,7.41,0l7.1-3.68l-0.34-0.6 C43.715,54.1,41.964,53.603,40.548,54.348z"/><path fill="#fff7f0" d="M23.163,41.178l9.403,4.44c0.934,0.442,1.967,0.635,2.998,0.56l2.188-0.16 c1.465-0.097,2.865,0.617,3.647,1.86l0.1,0.18c0.399,0.897,1.39,1.372,2.338,1.12l17.09-4.47c-0.399-1.987-2.332-3.275-4.318-2.876 c-0.067,0.013-0.133,0.029-0.199,0.046l-14.38,3.76l0,0c-0.201-2.159-2.085-3.765-4.247-3.62l-2.188,0.16 c-1.031,0.075-2.064-0.118-2.998-0.56l-9.403-4.44c-2.038-0.965-4.307-1.336-6.545-1.07l-11.823,1.39 c-1.013,0.117-1.776,0.979-1.769,2v2.21l13.591-1.6C18.877,39.848,21.134,40.218,23.163,41.178z"/><path fill="#8d6c9f" d="M9.058,39.708h-2c-0.552,0-1,0.448-1,1s0.448,1,1,1h2c0.552,0,1-0.448,1-1S9.61,39.708,9.058,39.708 z M9.058,44.708h-2c-0.552,0-1,0.448-1,1s0.448,1,1,1h2c0.552,0,1-0.448,1-1S9.61,44.708,9.058,44.708z M9.058,49.708h-2 c-0.552,0-1,0.448-1,1s0.448,1,1,1h2c0.552,0,1-0.448,1-1S9.61,49.708,9.058,49.708z"/><path fill="#8d6c9f" d="M60.198,41.758c-1.133-0.879-2.608-1.185-3.997-0.83l-13.431,3.48 c-0.728-2.161-2.824-3.555-5.096-3.39l-2.188,0.16c-0.843,0.053-1.685-0.109-2.448-0.47l-9.403-4.44 c-2.201-1.038-4.649-1.436-7.065-1.15l-11.864,1.39c-1.375,0.162-2.44,1.237-2.621,2.575c-0.019,0.139-0.028,0.281-0.027,0.425 v12.64c0,1.657,1.342,3,2.998,3c0.246,0,0.491-0.03,0.73-0.09l6.555-1.64c1.682-0.427,3.463-0.213,4.997,0.6l12.581,6.63 c2.61,1.366,5.724,1.366,8.334,0l21.285-11c2.295-1.198,3.185-4.031,1.987-6.328c-0.311-0.597-0.747-1.119-1.278-1.532 L60.198,41.758z M58.569,47.848l-21.285,11c-2.029,1.06-4.447,1.06-6.476,0l-12.581-6.6c-1.955-1.031-4.221-1.305-6.366-0.77 l-6.565,1.64c-0.536,0.133-1.078-0.194-1.21-0.73c-0.022-0.088-0.032-0.179-0.029-0.27v-12.63c-0.004-0.509,0.375-0.939,0.879-1 l11.822-1.39c2.053-0.237,4.131,0.109,5.996,1l9.403,4.44c1.087,0.513,2.289,0.737,3.488,0.65l2.188-0.16 c1.651-0.122,3.088,1.12,3.21,2.772c0.006,0.076,0.008,0.152,0.008,0.228v0.41c-0.001,0.393-0.231,0.749-0.59,0.91l-2.998,1.33 c-2.216,0.993-4.739,1.047-6.995,0.15l-4.997-2c-0.513-0.204-1.095,0.046-1.299,0.56s0.046,1.096,0.56,1.3l4.997,2 c2.771,1.104,5.871,1.039,8.594-0.18l2.998-1.33c1.061-0.505,1.729-1.584,1.709-2.76l13.641-3.54 c1.408-0.454,2.917,0.32,3.37,1.729c0.42,1.304-0.211,2.714-1.462,3.271L58.569,47.848z"/><path fill="#8d6c9f" d="M41.058,37.708c-9.925,0-18-8.075-18-18s8.075-18,18-18s18,8.075,18,18S50.983,37.708,41.058,37.708 z M41.058,3.708c-8.822,0-16,7.178-16,16s7.178,16,16,16s16-7.178,16-16S49.88,3.708,41.058,3.708z"/><path fill="#8d6c9f" d="M48.057,10.981c-0.202,0-0.406-0.061-0.583-0.188c-0.589-0.424-1.206-0.786-1.834-1.074 c-0.502-0.231-0.722-0.825-0.49-1.327c0.23-0.502,0.822-0.722,1.326-0.491c0.744,0.343,1.474,0.77,2.166,1.269 c0.448,0.323,0.55,0.948,0.228,1.396C48.674,10.837,48.368,10.981,48.057,10.981z"/><path fill="#8d6c9f" d="M41.058,32.708c-7.168,0-13-5.832-13-13s5.832-13,13-13c0.366,0,0.726,0.024,1.083,0.054 c0.55,0.045,0.959,0.529,0.914,1.079c-0.047,0.55-0.519,0.958-1.08,0.914c-0.303-0.025-0.607-0.047-0.917-0.047 c-6.065,0-11,4.935-11,11s4.935,11,11,11s11-4.935,11-11c0-2.167-0.634-4.265-1.832-6.066c-0.307-0.46-0.182-1.081,0.278-1.387 c0.458-0.306,1.08-0.181,1.386,0.278c1.419,2.131,2.168,4.612,2.168,7.175C54.058,26.876,48.226,32.708,41.058,32.708z"/><path fill="#8d6c9f" d="M47,22.5c0-1.516-0.758-2.852-1.91-3.668C45.65,18.212,46,17.399,46,16.5 c0-1.391-0.822-2.585-2-3.149V12c0-0.553-0.447-1-1-1s-1,0.447-1,1v1h-2v-1c0-0.553-0.447-1-1-1s-1,0.447-1,1v1 c-0.553,0-1,0.448-1,1v5v7c0,0.552,0.447,1,1,1v1c0,0.553,0.447,1,1,1s1-0.447,1-1v-1h2v1c0,0.553,0.447,1,1,1s1-0.447,1-1v-1.276 C45.742,26.102,47,24.453,47,22.5z M39,15h3.5c0.827,0,1.5,0.673,1.5,1.5S43.327,18,42.5,18H39V15z M42.5,25H39v-5h3.5 c1.379,0,2.5,1.122,2.5,2.5S43.879,25,42.5,25z"/></svg>